<svg width="215" height="262" viewBox="0 0 215 262" fill="none" xmlns="http://www.w3.org/2000/svg">
<path d="M106.364 0.660475C105.87 0.660475 102.981 6.09579 77.4234 55.1016C70.1497 69.0486 63.6335 81.8691 60.4696 88.0669H95.5409C96.8415 85.6329 98.7062 81.9322 99.8428 79.768C103.986 71.8785 105.845 68.592 106.24 68.4606C106.715 68.3023 107.011 68.798 111.779 77.7268C113.095 80.1914 115.42 84.3572 117.505 88.0669H152.637C150.4 83.7853 147.653 78.6093 145.296 74.1543C143.564 70.8793 135.678 55.7975 127.774 40.6392C108.138 2.98602 106.893 0.659164 106.364 0.659164V0.660475ZM56.9691 94.8732L56.6821 95.4224H56.5091L55.2032 97.8043C53.4324 101.034 45.4574 116.236 24.1454 157.009C4.64221 194.32 0.862305 201.643 0.862305 202.12C0.862305 202.308 18.8569 202.429 46.0314 202.424L91.1998 202.416L98.6214 187.076C102.703 178.64 105.995 171.69 105.937 171.634C105.879 171.577 93.8501 171.418 79.2064 171.28C64.5627 171.143 52.5815 170.954 52.5815 170.861C52.5815 170.534 62.7874 150.689 72.3064 132.509C81.856 114.271 89.1965 100.028 90.7372 96.7893C91.1983 96.553 91.4274 96.0832 91.8852 94.8733L56.9691 94.8732ZM121.374 94.8732L121.716 95.4518C121.701 95.4556 121.56 95.4585 121.556 95.461C121.223 95.7946 122.239 97.7766 146.838 144.754C157.521 165.155 160.165 170.409 159.937 170.778C159.852 170.916 148.026 171.141 133.657 171.279C119.289 171.417 107.471 171.59 107.396 171.664C107.196 171.861 109.277 176.294 116.05 190.098L122.102 202.432L166.536 202.427C191.13 202.423 211.178 202.289 211.437 202.125C211.914 201.823 210.796 199.352 206.88 192.054C206.076 190.557 201.826 182.442 197.434 174.021C177.034 134.901 157.588 97.6851 156.944 96.5272L156.556 95.83C156.463 95.6093 156.287 95.242 156.111 94.8733L121.374 94.8732ZM158.602 224.46V242.724C158.602 262.256 158.543 261.343 159.804 261.607C160.526 261.758 163.917 261.585 164.116 261.387C164.514 260.99 164.755 232.507 164.407 227.002L164.255 224.596L161.428 224.528L158.602 224.46ZM131.875 224.476C129.924 224.476 129.196 224.562 128.932 224.826C128.657 225.1 128.541 226.328 128.4 230.42C128.222 235.598 128.456 260.583 128.688 261.188C128.754 261.36 129.151 261.548 129.57 261.607C130.931 261.8 133.33 261.632 133.639 261.324C133.868 261.095 133.975 258.188 134.085 249.185C134.165 242.674 134.246 237.321 134.265 237.288C134.558 236.791 135.31 238.24 140.976 250.219C143.073 254.652 145.163 258.983 145.62 259.843C146.42 261.349 146.494 261.414 147.601 261.615C148.233 261.729 149.458 261.747 150.322 261.655C151.701 261.507 151.92 261.413 152.121 260.885C152.454 260.009 152.661 238.914 152.411 231.375C152.238 226.194 152.128 224.878 151.85 224.702C151.659 224.581 150.465 224.481 149.194 224.479L146.885 224.476L146.753 235.927C146.678 242.435 146.524 247.476 146.398 247.602C145.997 248.003 145.494 247.092 142.122 239.874C137.023 228.959 135.288 225.382 134.86 224.91C134.528 224.543 134.067 224.476 131.875 224.476ZM168.225 224.476V227.844V231.212L171.533 231.216C173.353 231.218 174.963 231.299 175.111 231.396C175.303 231.522 175.419 235.742 175.514 246.009C175.587 253.948 175.721 260.682 175.81 260.972C175.921 261.331 176.216 261.536 176.731 261.61C178.297 261.836 180.765 261.602 181.178 261.189C181.54 260.826 181.586 259.429 181.659 246.402C181.704 238.489 181.835 231.862 181.951 231.674C182.113 231.41 182.966 231.314 185.692 231.254L189.222 231.176L189.069 229.715C188.985 228.912 188.916 227.404 188.916 226.365V224.476H178.571H168.225ZM192.763 224.476L192.824 242.939L192.887 261.402L193.608 261.573C194.603 261.807 198.09 261.593 198.404 261.279C198.567 261.116 198.704 258.67 198.781 254.598C198.847 251.065 198.989 248.039 199.096 247.874C199.203 247.708 199.672 247.573 200.137 247.573C201.713 247.573 202.492 248.821 206.487 257.758C207.187 259.324 207.931 260.812 208.142 261.065C208.849 261.913 214.013 261.998 214.332 261.167C214.73 260.13 209.123 248.578 206.611 245.258C206.444 245.038 206.824 244.547 207.983 243.485C210.8 240.904 211.932 237.868 211.707 233.5C211.555 230.555 211.126 229.294 209.657 227.472C207.582 224.898 205.89 224.48 197.516 224.477L192.763 224.476ZM198.781 230.66L200.843 230.819C203.343 231.011 204.152 231.394 204.821 232.705C205.255 233.556 205.317 234.016 205.233 235.771C205.118 238.17 204.454 239.678 203.188 240.415C202.75 240.67 201.71 240.921 200.759 241.001L199.096 241.14L198.938 239.992C198.851 239.361 198.781 237.003 198.781 234.752V230.66Z" fill="white"/>
<path d="M106.516 109.109C106.343 109.109 105.455 111.545 104.542 114.523L102.881 119.936L97.5994 120.284C94.6943 120.476 91.9618 120.692 91.5276 120.765C91.029 120.849 92.3586 122.146 95.1369 124.285C97.8501 126.375 99.5919 128.066 99.6838 128.699C99.7656 129.264 99.1705 131.846 98.3608 134.436C97.5511 137.027 96.8884 139.342 96.8884 139.583C96.8884 140.018 98.7052 138.775 102.482 135.753C106.184 132.793 106.537 132.765 109.721 135.183C113.921 138.374 115.687 139.553 115.919 139.321C116.034 139.206 115.484 137.071 114.697 134.577C113.91 132.082 113.273 129.5 113.281 128.838C113.293 127.894 114.247 126.912 117.723 124.267L122.151 120.898L116.377 120.525C112.117 120.249 110.459 119.96 110.054 119.423C109.753 119.023 108.904 116.538 108.168 113.902C107.431 111.266 106.688 109.109 106.516 109.109ZM21.7564 209.258C21.5031 209.258 21.1421 209.559 20.0645 210.672C17.3209 213.506 14.3935 216.977 14.5039 217.264C14.5386 217.355 15.1706 217.737 15.9088 218.113C16.6471 218.489 17.495 218.962 17.7927 219.163C18.6876 219.769 19.8385 220.934 20.4315 221.836C21.0307 222.746 21.2111 223.168 21.7007 224.802L22.0146 225.85L22.8206 225.333C23.264 225.048 24.8457 224.029 26.3355 223.068C27.8253 222.107 29.3609 221.143 29.7481 220.924C30.8482 220.303 31.0085 219.55 30.4787 217.488C30.0695 215.896 28.7443 213.783 27.3924 212.567C26.0171 211.331 22.4868 209.258 21.7564 209.258ZM12.8074 220.987C12.4236 220.978 12.0881 221.071 11.7341 221.252C10.9483 221.653 7.44665 225.375 7.44665 225.808C7.44665 226.035 8.08081 226.522 9.01537 227.013C9.47705 227.255 10.0239 227.646 10.2302 227.881C10.901 228.645 10.8299 229.02 7.94793 239.933C4.79992 251.855 2.63501 260.382 2.63501 260.858C2.63501 261.239 2.71044 261.282 3.53731 261.386C4.53468 261.51 7.35379 261.375 8.20283 261.162C8.6203 261.057 8.73034 260.749 9.5979 257.244C10.4558 253.778 10.5781 253.441 11.0139 253.332C11.3671 253.243 19.652 253.39 19.9112 253.489C20.1222 253.57 20.3843 254.464 21.284 258.172L22.0172 261.194L22.7498 261.27C23.6824 261.368 27.5756 261.37 27.8275 261.274C28.252 261.111 28.3855 261.684 23.2681 241.738C21.3075 234.096 19.5465 227.373 19.3542 226.798C18.475 224.168 17.5537 223.021 15.4442 221.929C14.2218 221.297 13.4471 221.001 12.8074 220.987ZM111.467 224.053C106.421 223.983 101.612 227.955 99.4243 234.581C98.1517 238.434 98.2127 248.774 99.5285 252.27C101.54 257.613 105.009 261.07 109.038 261.745C113.554 262.501 117.801 260.414 120.458 256.133C122.608 252.67 123.447 249.522 123.643 244.18C123.842 238.753 123.141 234.656 121.382 230.985C120.338 228.805 117.704 226.068 115.71 225.093C114.312 224.409 112.88 224.073 111.467 224.053ZM41.0961 224.058C40.2695 224.061 39.4662 224.119 38.7699 224.24C37.4355 224.472 35.9248 224.986 35.0237 225.514C34.0528 226.084 32.598 227.562 32.0651 228.521C31.0938 230.269 30.6655 232.237 30.6655 234.942C30.6655 236.917 30.7932 237.829 31.2552 239.175C32.0684 241.545 33.6869 243.353 37.0413 245.638C41.5081 248.68 42.3932 249.698 42.3935 251.795C42.3936 252.672 42.3509 252.853 41.9722 253.594C41.2291 255.05 40.1221 255.613 38.0026 255.614C35.5763 255.615 33.5403 254.836 31.7152 253.208C31.3189 252.854 30.9535 252.565 30.9027 252.565C30.6818 252.565 30.6299 253.188 30.5731 256.539L30.5135 260.093L31.729 260.665C32.9571 261.243 34.2139 261.622 35.5361 261.814C36.5816 261.966 39.1569 261.969 40.2495 261.819C43.5822 261.364 45.9272 259.694 47.4181 256.715C48.2024 255.148 48.2555 254.848 48.3152 251.602C48.3806 248.046 48.2847 247.432 47.3899 245.648C46.2854 243.446 45.1652 242.342 41.3883 239.732C38.7928 237.938 37.4329 236.72 36.9705 235.775C36.6776 235.176 36.6547 235.025 36.6999 233.991C36.7435 232.993 36.7919 232.793 37.1101 232.277C37.8466 231.084 39.3151 230.428 41.2455 230.432C42.6277 230.435 43.5717 230.653 45.4458 231.404C46.3131 231.752 47.0638 231.995 47.1141 231.945C47.1643 231.895 47.2052 230.428 47.2052 228.685V225.517L46.9116 225.204C46.2661 224.517 43.5758 224.046 41.0961 224.058ZM75.5358 224.52V242.988V261.458L77.3699 261.397C78.3789 261.365 79.5971 261.309 80.0768 261.272L80.9489 261.206L80.9566 260.164C80.9778 257.365 81.2716 247.63 81.3367 247.565C81.4614 247.441 82.8227 247.356 83.2901 247.443C83.7882 247.537 84.5253 248.149 85.0396 248.897C85.6146 249.733 86.8596 252.329 88.5284 256.174C90.3318 260.329 90.5898 260.871 90.8827 261.114C91.1694 261.351 96.1451 261.368 96.5573 261.132C96.8604 260.959 96.8997 260.632 96.691 260.012C96.4875 259.406 93.4753 252.955 92.2312 250.46C90.9427 247.875 90.4946 247.105 89.6737 246.069C89.3331 245.639 89.0118 245.216 88.9601 245.13C88.8962 245.023 89.362 244.464 90.4148 243.385C92.0536 241.706 92.8448 240.595 93.4842 239.073C94.54 236.56 94.5682 233.146 93.5582 230.1C92.9555 228.282 92.0251 227.048 90.487 226.027C88.876 224.958 88.0382 224.823 82.3923 224.721C80.3082 224.684 77.9125 224.623 77.0689 224.586L75.5358 224.52ZM50.6342 224.656L50.6425 226.25C50.6563 228.654 50.8015 230.646 50.9754 230.821C51.0865 230.932 52.0238 230.987 54.5191 231.032L57.9115 231.092L58.0215 231.754C58.0829 232.123 58.1374 238.4 58.1441 245.949C58.1588 262.194 58.134 261.082 58.4829 261.223C58.7985 261.349 62.0473 261.383 63.1267 261.27L63.866 261.192L63.8831 252.758C63.8925 248.12 63.9332 241.374 63.9735 237.768L64.0463 231.212L64.7081 231.07C65.1649 230.972 66.2263 230.95 68.1365 230.996C70.7309 231.059 70.9207 231.049 71.1821 230.835C71.5786 230.511 71.6996 229.384 71.6068 226.871L71.5308 224.815L64.2396 224.736C60.2296 224.692 55.5281 224.656 53.7913 224.656H50.6342ZM5.12307 229.115C4.67826 229.113 4.26463 229.471 3.53469 230.22C2.45281 231.329 1.25618 232.958 1.11806 233.509C1.0779 233.668 1.07946 233.937 1.12207 234.106C1.23309 234.548 2.13312 235.483 2.68947 235.733C3.12015 235.927 3.20485 235.93 3.59178 235.769C4.66887 235.319 7.4856 233.338 7.92443 232.722C8.46515 231.962 8.04478 231.069 6.61258 229.935C5.93255 229.397 5.51553 229.116 5.12307 229.115ZM81.3264 230.717L83.0923 230.756C84.0638 230.778 85.1483 230.854 85.5024 230.925C86.9301 231.212 88.0685 232.929 88.2447 235.062C88.37 236.577 87.9123 238.136 86.9807 239.371C86.2505 240.339 85.5101 240.831 84.5248 241.003C83.7834 241.132 82.3705 241.158 81.8296 241.053C81.2624 240.942 81.2523 240.866 81.2091 236.517C81.1866 234.261 81.2037 232.033 81.2471 231.566L81.3264 230.717ZM111.154 230.977C113.9 230.965 116.073 233.097 117.157 236.866C117.718 238.817 117.85 245.915 117.365 248.089C116.654 251.277 115.099 253.78 113.304 254.625C111.138 255.645 108.811 255.124 107.165 253.249C105.232 251.047 104.581 248.946 104.323 244.084C103.906 236.216 106.626 230.995 111.154 230.977ZM15.2666 232.114C15.4919 232.114 18.074 243.763 18.3379 245.97L18.4191 246.652L17.9559 246.79C17.4836 246.929 13.479 247.068 13.0407 246.961C12.9084 246.928 12.6705 246.874 12.5119 246.839C12.225 246.777 12.2237 246.771 12.2996 245.611C12.3416 244.97 12.5907 243.372 12.8533 242.062C13.3804 239.431 15.1554 232.114 15.2666 232.114Z" fill="#FFC700"/>
</svg>
